<?xml version="1.0" encoding="UTF-8" standalone="no"?>
<!-- Created with Inkscape (http://www.inkscape.org/) -->

<svg
   xmlns:dc="http://purl.org/dc/elements/1.1/"
   xmlns:cc="http://creativecommons.org/ns#"
   xmlns:rdf="http://www.w3.org/1999/02/22-rdf-syntax-ns#"
   xmlns:svg="http://www.w3.org/2000/svg"
   xmlns="http://www.w3.org/2000/svg"
   xmlns:xlink="http://www.w3.org/1999/xlink"
   xmlns:sodipodi="http://sodipodi.sourceforge.net/DTD/sodipodi-0.dtd"
   xmlns:inkscape="http://www.inkscape.org/namespaces/inkscape"
   width="100"
   height="100"
   id="svg2"
   version="1.1"
   inkscape:version="0.48.0 r9654"
   sodipodi:docname="archive.png">
  <defs
     id="defs4">
    <linearGradient
       id="linearGradient3887">
      <stop
         style="stop-color:#ffda1e;stop-opacity:1;"
         offset="0"
         id="stop3889" />
      <stop
         style="stop-color:#d69500;stop-opacity:1;"
         offset="1"
         id="stop3891" />
    </linearGradient>
    <linearGradient
       id="linearGradient3871">
      <stop
         style="stop-color:#ffda1e;stop-opacity:1;"
         offset="0"
         id="stop3873" />
      <stop
         style="stop-color:#ffda1e;stop-opacity:0;"
         offset="1"
         id="stop3875" />
    </linearGradient>
    <linearGradient
       id="linearGradient3840">
      <stop
         style="stop-color:#ffda1e;stop-opacity:1;"
         offset="0"
         id="stop3842" />
      <stop
         style="stop-color:#ffffff;stop-opacity:0.96747965;"
         offset="1"
         id="stop3844" />
    </linearGradient>
    <linearGradient
       id="linearGradient3832">
      <stop
         style="stop-color:#ffffff;stop-opacity:1;"
         offset="0"
         id="stop3834" />
      <stop
         style="stop-color:#000000;stop-opacity:0;"
         offset="1"
         id="stop3836" />
    </linearGradient>
    <linearGradient
       inkscape:collect="always"
       xlink:href="#linearGradient3840"
       id="linearGradient3846"
       x1="65.627144"
       y1="978.62531"
       x2="88.118388"
       y2="983.22086"
       gradientUnits="userSpaceOnUse" />
    <linearGradient
       inkscape:collect="always"
       xlink:href="#linearGradient3887"
       id="linearGradient3893"
       x1="28.136527"
       y1="1000.8916"
       x2="91.716414"
       y2="1000.8916"
       gradientUnits="userSpaceOnUse" />
  </defs>
  <sodipodi:namedview
     id="base"
     pagecolor="#ffffff"
     bordercolor="#666666"
     borderopacity="1.0"
     inkscape:pageopacity="0.0"
     inkscape:pageshadow="2"
     inkscape:zoom="5.44"
     inkscape:cx="50"
     inkscape:cy="57.352941"
     inkscape:document-units="px"
     inkscape:current-layer="layer1"
     showgrid="false"
     inkscape:window-width="1280"
     inkscape:window-height="748"
     inkscape:window-x="0"
     inkscape:window-y="0"
     inkscape:window-maximized="1" />
  <metadata
     id="metadata7">
    <rdf:RDF>
      <cc:Work
         rdf:about="">
        <dc:format>image/svg+xml</dc:format>
        <dc:type
           rdf:resource="http://purl.org/dc/dcmitype/StillImage" />
        <dc:title></dc:title>
      </cc:Work>
    </rdf:RDF>
  </metadata>
  <g
     inkscape:label="Layer 1"
     inkscape:groupmode="layer"
     id="layer1"
     transform="translate(0,-952.36218)">
    <path
       style="color:#000000;fill:url(#linearGradient3893);fill-opacity:1;fill-rule:nonzero;stroke:#000000;stroke-width:0.32757323999999999;stroke-linecap:square;stroke-linejoin:miter;stroke-miterlimit:4;stroke-opacity:1;stroke-dashoffset:0;marker:none;visibility:visible;display:inline;overflow:visible;enable-background:accumulate"
       d="m 29.438626,983.65466 61.962959,0 0.151042,34.47394 -62.114001,0 c -0.630625,0 -1.138312,-0.3405 -1.138312,-0.7634 l 0,-32.94714 c 0,-0.4229 0.507687,-0.7634 1.138312,-0.7634 z"
       id="rect3753-3"
       inkscape:connector-curvature="0"
       sodipodi:nodetypes="sccssss" />
    <path
       style="color:#000000;fill:#ffda1e;fill-opacity:1;fill-rule:nonzero;stroke:#000000;stroke-width:0.40000001;stroke-linecap:square;stroke-linejoin:miter;stroke-miterlimit:4;stroke-opacity:1;stroke-dasharray:none;stroke-dashoffset:0;marker:none;visibility:visible;display:inline;overflow:visible;enable-background:accumulate"
       d="m 27.31059,984.06601 c 0.427731,-0.4634 1.13832,0.50769 1.13832,1.13831 l 0,32.04038 c 0,0.6306 -0.706577,0.6786 -1.13832,1.1383 l -18.4957834,19.5069 -0.131364,-34.2218 c 0,0 12.5838574,-13.05482 18.6271474,-19.60209 z"
       id="rect3753-6-5"
       inkscape:connector-curvature="0"
       sodipodi:nodetypes="csssccc" />
    <path
       style="color:#000000;fill:#ffda1e;fill-opacity:1;fill-rule:nonzero;stroke:#000000;stroke-width:0.32757324;stroke-linecap:square;stroke-linejoin:miter;stroke-miterlimit:4;stroke-opacity:1;stroke-dashoffset:0;marker:none;visibility:visible;display:inline;overflow:visible;enable-background:accumulate"
       d="m 9.9863509,1002.8769 61.9629581,0 0.151042,35.2092 -62.1140001,0 c -0.630625,0 -1.138312,-0.3405 -1.138312,-0.7634 l 0,-33.6824 c 0,-0.4229 0.507687,-0.7634 1.138312,-0.7634 z"
       id="rect3753"
       inkscape:connector-curvature="0"
       sodipodi:nodetypes="sccssss" />
    <path
       style="color:#000000;fill:#ffda1e;fill-opacity:1;fill-rule:nonzero;stroke:#000000;stroke-width:0.40000001;stroke-linecap:square;stroke-linejoin:miter;stroke-miterlimit:4;stroke-opacity:1;stroke-dashoffset:0;marker:none;visibility:visible;display:inline;overflow:visible;enable-background:accumulate"
       d="m 90.626386,983.42199 c 0.427731,-0.4634 1.13832,0.50769 1.13832,1.13831 l 0,32.7755 c 0,0.6306 -0.704463,0.6807 -1.13832,1.1383 l -18.495783,19.5069 -0.131364,-34.9569 c 0,0 12.583857,-13.05484 18.627147,-19.60211 z"
       id="rect3753-6"
       inkscape:connector-curvature="0"
       sodipodi:nodetypes="csssccc" />
    <path
       style="color:#000000;fill:#ffda1e;fill-opacity:1;fill-rule:nonzero;stroke:#000000;stroke-width:0.40000001;stroke-linecap:square;stroke-linejoin:miter;stroke-miterlimit:4;stroke-opacity:1;stroke-dashoffset:0;marker:none;visibility:visible;display:inline;overflow:visible;enable-background:accumulate"
       d="m 24.416495,982.61166 17.838293,-18.95944 c 0.221934,-0.23589 1.444677,-1.18053 0.400602,0.15882 l -15.07353,19.33645 c -0.199338,0.25587 -0.178668,0.7745 -0.400602,1.01038 L 9.3429637,1003.1173 c -0.2219336,0.2359 -0.5997302,0.097 -0.4006022,-0.1588 L 24.015892,983.62205 c 0.199114,-0.25543 0.178669,-0.77451 0.400603,-1.01039 z"
       id="rect3793"
       inkscape:connector-curvature="0"
       sodipodi:nodetypes="sssssssss" />
    <path
       style="color:#000000;fill:#ffda1e;fill-opacity:1;fill-rule:nonzero;stroke:#000000;stroke-width:0.40000001;stroke-linecap:square;stroke-linejoin:miter;stroke-miterlimit:4;stroke-opacity:1;stroke-dashoffset:0;marker:none;visibility:visible;display:inline;overflow:visible;enable-background:accumulate"
       d="m 39.644732,982.4292 c 4.19326,-3.63446 16.703994,-19.71521 18.238901,-18.80062 l 32.536759,19.15263 c 0.279413,0.16448 -0.178669,0.7745 -0.400602,1.01038 l -17.838294,18.95931 c -0.221933,0.2359 -0.121477,0 -0.400602,-0.1588 L 39.24413,983.43959 c -0.279103,-0.16429 0.178669,-0.77451 0.400602,-1.01039 z"
       id="rect3793-6"
       inkscape:connector-curvature="0"
       sodipodi:nodetypes="ccsssssc" />
    <path
       style="color:#000000;fill:url(#linearGradient3846);fill-opacity:1;fill-rule:nonzero;stroke:none;stroke-width:0.40000001000000002;marker:none;visibility:visible;display:inline;overflow:visible;enable-background:accumulate"
       d="m 41.989002,982.50288 c 3.802983,-3.29619 15.149313,-17.88027 16.541362,-17.0508 l 29.508485,17.37005 c 0.253407,0.14917 -0.16204,0.70242 -0.363317,0.91634 l -16.178041,17.19473 c -0.201277,0.2139 -0.110171,0 -0.363317,-0.144 L 41.625685,983.41923 c -0.253126,-0.149 0.16204,-0.70242 0.363317,-0.91635 z"
       id="rect3793-6-9"
       inkscape:connector-curvature="0"
       sodipodi:nodetypes="ccsssssc" />
    <path
       style="fill:#ffaa00;stroke:none;stroke-width:1px;stroke-linecap:butt;stroke-linejoin:miter;stroke-opacity:1;fill-opacity:1"
       d="m 91.727941,46.32353 -19.669117,19.669117 -63.4191181,0 0,6.617647 63.4191181,0 19.577206,-19.577206 z"
       id="path3866"
       inkscape:connector-curvature="0"
       transform="translate(0,952.36218)"
       sodipodi:nodetypes="ccccccc" />
  </g>
</svg>
