<?xml version="1.0" encoding="UTF-8" standalone="no"?>
<!-- Created with Inkscape (http://www.inkscape.org/) -->

<svg
   xmlns:dc="http://purl.org/dc/elements/1.1/"
   xmlns:cc="http://creativecommons.org/ns#"
   xmlns:rdf="http://www.w3.org/1999/02/22-rdf-syntax-ns#"
   xmlns:svg="http://www.w3.org/2000/svg"
   xmlns="http://www.w3.org/2000/svg"
   version="1.2"
   width="100%"
   height="100%"
   viewBox="0 0 250 125"
   id="svg2">
  <defs
     id="defs4" />
  <metadata
     id="metadata7">
    <rdf:RDF>
      <cc:Work
         rdf:about="">
        <dc:format>image/svg+xml</dc:format>
        <dc:type
           rdf:resource="http://purl.org/dc/dcmitype/StillImage" />
        <dc:title></dc:title>
      </cc:Work>
    </rdf:RDF>
  </metadata>
  <g
     transform="translate(0,-927.36218)"
     id="layer1">
    <g
       transform="matrix(2.2126218,0,0,2.2126218,-26.831776,851.37884)"
       id="flowRoot2985"
       style="font-size:40px;font-style:normal;font-variant:normal;font-weight:normal;font-stretch:normal;line-height:125%;letter-spacing:0px;word-spacing:0px;fill:#000000;fill-opacity:1;stroke:none;font-family:cmr10;-inkscape-font-specification:cmr10">
      <path
         d="m 15.804688,87.782741 0,-2.53125 c 4.945305,3e-6 7.417958,-0.761715 7.417968,-2.285156 l 0,-39.550781 c -10e-6,-1.523392 -2.472663,-2.28511 -7.417968,-2.285156 l 0,-2.53125 26.472656,0 c 2.437468,4.9e-5 4.898403,0.480517 7.382812,1.441406 2.484336,0.937547 4.535116,2.343795 6.152344,4.21875 1.640581,1.851604 2.460893,4.043008 2.460937,6.574219 -4.4e-5,2.929721 -1.207074,5.390656 -3.621093,7.382812 -2.390664,1.968778 -5.191443,3.257839 -8.402344,3.867188 2.085903,2.5e-5 4.230432,0.574243 6.433594,1.722656 2.203083,1.14846 4.007769,2.683615 5.414062,4.605469 1.406204,1.921892 2.109328,3.960952 2.109375,6.117187 -4.7e-5,2.625011 -0.785202,4.945321 -2.355469,6.960938 -1.546917,2.015629 -3.56254,3.574221 -6.046875,4.675781 -2.48441,1.078125 -4.980502,1.617187 -7.488281,1.617187 l -28.511718,0 m 13.675781,-4.816406 c -1.6e-5,1.031254 0.292952,1.675784 0.878906,1.933594 0.58592,0.234377 1.5117,0.351565 2.777344,0.351562 l 9.140625,0 c 1.874969,3e-6 3.609342,-0.492184 5.203125,-1.476562 1.617151,-0.98437 2.894494,-2.296869 3.832031,-3.9375 0.937461,-1.664053 1.406211,-3.433583 1.40625,-5.308594 -3.9e-5,-1.82811 -0.386758,-3.609358 -1.160156,-5.34375 -0.773475,-1.757792 -1.886755,-3.199197 -3.339844,-4.324219 -1.429721,-1.124976 -3.070344,-1.687475 -4.921875,-1.6875 l -13.816406,0 0,19.792969 m 0,-21.691406 10.792968,0 c 1.453097,2.6e-5 2.812471,-0.257786 4.078125,-0.773438 1.289031,-0.539034 2.437467,-1.300752 3.445313,-2.285156 1.031215,-1.007782 1.81637,-2.132781 2.355469,-3.375 0.562462,-1.265591 0.843712,-2.601527 0.84375,-4.007812 -3.8e-5,-1.24215 -0.210975,-2.437461 -0.632813,-3.585938 -0.398474,-1.148396 -0.99613,-2.191364 -1.792969,-3.128906 -0.796909,-0.937456 -1.734408,-1.664017 -2.8125,-2.179688 -1.078156,-0.539016 -2.238311,-0.808547 -3.480468,-0.808593 l -9.140625,0 c -0.867207,4.6e-5 -1.546893,0.0352 -2.039063,0.105468 -0.468767,0.07036 -0.855485,0.281297 -1.160156,0.632813 -0.304704,0.32817 -0.457047,0.843795 -0.457031,1.546875 l 0,17.859375"
         id="path3241"
         style="font-size:72px" />
      <path
         d="m 66.605469,87.782741 0,-2.53125 c 1.640621,3e-6 2.988276,-0.128903 4.042968,-0.386718 1.054681,-0.25781 1.582024,-0.890622 1.582032,-1.898438 l 0,-19.652344 c -8e-6,-1.851536 -0.363289,-2.988254 -1.089844,-3.410156 -0.703131,-0.421847 -2.10938,-0.632784 -4.21875,-0.632812 l 0,-2.53125 10.371094,-0.773438 0,27 c -1.3e-5,1.007816 0.457018,1.640628 1.371093,1.898438 0.914048,0.257815 2.132797,0.386721 3.65625,0.386718 l 0,2.53125 -15.714843,0 m 3.058593,-44.191406 c -5e-6,-1.054642 0.398432,-1.980423 1.195313,-2.777344 0.796868,-0.796827 1.710929,-1.195264 2.742187,-1.195312 0.679678,4.8e-5 1.335927,0.175829 1.96875,0.527344 0.632801,0.351609 1.124988,0.843796 1.476563,1.476562 0.351549,0.632858 0.527331,1.289107 0.527344,1.96875 -1.3e-5,1.031293 -0.398451,1.945355 -1.195313,2.742188 -0.796886,0.796915 -1.722666,1.195352 -2.777344,1.195312 -1.031258,4e-5 -1.945319,-0.398397 -2.742187,-1.195312 -0.796881,-0.796833 -1.195318,-1.710895 -1.195313,-2.742188"
         id="path3243"
         style="font-size:72px" />
      <path
         d="m 91.847656,87.782741 0,-42.609375 c -7e-6,-1.289018 -0.199226,-2.214799 -0.597656,-2.777343 -0.375007,-0.585892 -0.925787,-0.937454 -1.652344,-1.054688 -0.726567,-0.140578 -1.851566,-0.210891 -3.375,-0.210937 l 0,-2.53125 10.652344,-0.773438 0,22.535156 c 0.796862,-0.890596 1.722642,-1.664033 2.777344,-2.320312 1.078106,-0.679657 2.226546,-1.195282 3.445316,-1.546875 1.21873,-0.351531 2.46091,-0.527312 3.72656,-0.527344 2.15622,3.2e-5 4.14841,0.433625 5.97656,1.300781 1.85153,0.867217 3.457,2.062529 4.81641,3.585938 1.35934,1.523463 2.41402,3.281273 3.16406,5.273437 0.7734,1.96877 1.16012,4.00783 1.16016,6.117188 -4e-5,2.906262 -0.71488,5.613291 -2.14453,8.121094 -1.40629,2.507817 -3.33988,4.511721 -5.80079,6.011718 -2.43752,1.476563 -5.12111,2.214843 -8.05078,2.214844 -1.82814,-10e-7 -3.59767,-0.46875 -5.30859,-1.40625 -1.710953,-0.937498 -3.128921,-2.179685 -4.253908,-3.726562 l -2.460937,4.324218 -2.074219,0 m 5.238281,-7.066406 c 0.796862,1.757818 1.945298,3.199223 3.445313,4.324219 1.49998,1.101564 3.16404,1.652345 4.99219,1.652344 2.48435,10e-7 4.48825,-0.714842 6.01172,-2.144532 1.54684,-1.429683 2.62497,-3.234368 3.23437,-5.414062 0.60935,-2.179677 0.91403,-4.47655 0.91406,-6.890625 -3e-5,-4.054668 -0.52737,-7.136696 -1.58203,-9.246094 -0.46878,-0.937474 -1.11331,-1.804661 -1.93359,-2.601562 -0.7969,-0.796847 -1.69925,-1.41794 -2.70703,-1.863282 -0.9844,-0.46872 -2.02737,-0.703095 -3.12891,-0.703125 -1.92189,3e-5 -3.70314,0.515655 -5.34375,1.546875 -1.640639,1.00784 -2.941419,2.367214 -3.902343,4.078125 l 0,17.261719"
         id="path3245"
         style="font-size:72px" />
    </g>
  </g>
</svg>
