<?xml version="1.0" encoding="UTF-8" standalone="no"?>
<!-- Created with Inkscape (http://www.inkscape.org/) -->

<svg
   xmlns:dc="http://purl.org/dc/elements/1.1/"
   xmlns:cc="http://creativecommons.org/ns#"
   xmlns:rdf="http://www.w3.org/1999/02/22-rdf-syntax-ns#"
   xmlns:svg="http://www.w3.org/2000/svg"
   xmlns="http://www.w3.org/2000/svg"
   version="1.2"
   width="100%"
   height="100%"
   viewBox="0 0 250 125"
   id="svg2">
  <defs
     id="defs4" />
  <metadata
     id="metadata7">
    <rdf:RDF>
      <cc:Work
         rdf:about="">
        <dc:format>image/svg+xml</dc:format>
        <dc:type
           rdf:resource="http://purl.org/dc/dcmitype/StillImage" />
        <dc:title></dc:title>
      </cc:Work>
    </rdf:RDF>
  </metadata>
  <g
     transform="translate(0,-927.36218)"
     id="layer1">
    <g
       transform="matrix(2.3859308,0,0,2.3859308,4.130096,849.02098)"
       id="flowRoot2985"
       style="font-size:40px;font-style:normal;font-variant:normal;font-weight:normal;font-stretch:normal;line-height:125%;letter-spacing:0px;word-spacing:0px;fill:#000000;fill-opacity:1;stroke:none;font-family:Serif;-inkscape-font-specification:Serif">
      <path
         d="m 9.7724609,49.31541 -5.5371093,0 0,-3.657227 5.5371093,0 0,-11.279296 6.3232421,0 0,11.279296 11.826172,0 0,3.657227 -11.826172,0 0,23.071289 c -1.4e-5,3.076178 0.29621,5.047205 0.888672,5.913086 0.592433,0.865888 1.686181,1.298831 3.28125,1.298828 1.640605,3e-6 2.836893,-0.478513 3.588867,-1.435547 0.751931,-0.979813 1.150694,-2.552077 1.196289,-4.716797 l 4.750977,0 c -0.182319,3.304042 -1.082383,5.719404 -2.700196,7.246094 -1.617861,1.526693 -4.078796,2.290038 -7.382812,2.290039 -3.623061,-10e-7 -6.186535,-0.797526 -7.69043,-2.392578 -1.503914,-1.617835 -2.2558666,-4.352208 -2.2558591,-8.203125 l 0,-23.071289"
         id="path3093"
         style="font-size:70px" />
      <path
         d="m 50.753906,59.808574 7.622071,-10.493164 -4.887696,0 0,-3.657227 13.979492,0 0,3.657227 -4.819336,0 -9.74121,13.432617 11.347656,15.620117 4.750976,0 0,3.623047 -16.782226,0 0,-3.623047 4.614258,0 -7.895508,-10.86914 -7.929688,10.86914 4.716797,0 0,3.623047 -13.808594,0 0,-3.623047 4.819336,0 10.014649,-13.808593 -11.040039,-15.244141 -4.477539,0 0,-3.657227 16.235351,0 0,3.657227 -4.34082,0 7.62207,10.493164"
         id="path3095"
         style="font-size:70px" />
      <path
         d="m 77.448242,49.31541 -5.537109,0 0,-3.657227 5.537109,0 0,-11.279296 6.323242,0 0,11.279296 11.826172,0 0,3.657227 -11.826172,0 0,23.071289 c -1.4e-5,3.076178 0.29621,5.047205 0.888672,5.913086 0.592433,0.865888 1.686182,1.298831 3.28125,1.298828 1.640606,3e-6 2.836893,-0.478513 3.588867,-1.435547 0.751931,-0.979813 1.150694,-2.552077 1.196289,-4.716797 l 4.750977,0 c -0.182319,3.304042 -1.082383,5.719404 -2.700195,7.246094 -1.617862,1.526693 -4.078797,2.290038 -7.382813,2.290039 -3.623061,-10e-7 -6.186535,-0.797526 -7.690429,-2.392578 -1.503915,-1.617835 -2.255867,-4.352208 -2.25586,-8.203125 l 0,-23.071289"
         id="path3097"
         style="font-size:70px" />
    </g>
  </g>
</svg>
