<?xml version="1.0" encoding="UTF-8" standalone="no"?>
<!-- Created with Inkscape (http://www.inkscape.org/) -->

<svg
   xmlns:dc="http://purl.org/dc/elements/1.1/"
   xmlns:cc="http://creativecommons.org/ns#"
   xmlns:rdf="http://www.w3.org/1999/02/22-rdf-syntax-ns#"
   xmlns:svg="http://www.w3.org/2000/svg"
   xmlns="http://www.w3.org/2000/svg"
   xmlns:xlink="http://www.w3.org/1999/xlink"
   xmlns:sodipodi="http://sodipodi.sourceforge.net/DTD/sodipodi-0.dtd"
   xmlns:inkscape="http://www.inkscape.org/namespaces/inkscape"
   width="250"
   height="75"
   id="svg2"
   version="1.1"
   inkscape:version="0.48.0 r9654"
   sodipodi:docname="New document 1">
  <defs
     id="defs4">
    <linearGradient
       id="linearGradient3799">
      <stop
         style="stop-color:#ffd219;stop-opacity:1;"
         offset="0"
         id="stop3801" />
      <stop
         id="stop3807"
         offset="0.5"
         style="stop-color:#ffd216;stop-opacity:0.59349591;" />
      <stop
         style="stop-color:#ffd213;stop-opacity:0;"
         offset="1"
         id="stop3803" />
    </linearGradient>
    <linearGradient
       id="linearGradient3783">
      <stop
         style="stop-color:#ffdc21;stop-opacity:1;"
         offset="0"
         id="stop3785" />
      <stop
         style="stop-color:#ffdc21;stop-opacity:0"
         offset="1"
         id="stop3787" />
    </linearGradient>
    <inkscape:path-effect
       effect="sketch"
       id="path-effect3781"
       is_visible="true"
       nbiter_approxstrokes="2"
       strokelength="100"
       strokelength_rdm="0;1"
       strokeoverlap="0.3"
       strokeoverlap_rdm="1;1"
       ends_tolerance="0.5;1"
       parallel_offset="4.4;1"
       tremble_size="6;1"
       tremble_frequency="1"
       nbtangents="2"
       tgt_places_rdmness="0;1"
       tgtscale="1"
       tgtlength="100"
       tgtlength_rdm="1;1" />
    <inkscape:path-effect
       effect="spiro"
       id="path-effect3779"
       is_visible="true" />
    <inkscape:path-effect
       effect="curvestitching"
       id="path-effect3777"
       is_visible="true"
       count="5"
       startpoint_edge_variation="0;1"
       startpoint_spacing_variation="0;1"
       endpoint_edge_variation="0;1"
       endpoint_spacing_variation="0;1"
       strokepath="m 9.0204949,37.483799 226.5689951,0"
       prop_scale="1"
       scale_y_rel="false" />
    <inkscape:path-effect
       effect="vonkoch"
       id="path-effect3775"
       is_visible="true"
       ref_path="m 9.0204949,37.483799 226.5689951,0"
       generator="m 9.0204949,61.896004 75.5229981,0 m 75.522997,0 75.523,0"
       similar_only="false"
       nbgenerations="1"
       drawall="true"
       maxComplexity="1000" />
    <inkscape:path-effect
       effect="gears"
       id="path-effect3773"
       is_visible="true"
       teeth="12"
       phi="1" />
    <inkscape:path-effect
       effect="ruler"
       id="path-effect3771"
       is_visible="true"
       unit="px"
       mark_distance="20"
       mark_length="14"
       minor_mark_length="7"
       major_mark_steps="5"
       shift="0"
       offset="0"
       mark_dir="left"
       border_marks="both" />
    <inkscape:path-effect
       effect="interpolate"
       id="path-effect3769"
       is_visible="true"
       trajectory="M 0,0 0,0"
       equidistant_spacing="true"
       steps="5" />
    <inkscape:path-effect
       effect="spiro"
       id="path-effect3767"
       is_visible="true" />
    <inkscape:path-effect
       effect="skeletal"
       id="path-effect3763"
       is_visible="true"
       pattern="m 7.9565897,972.1731 0,10 10.0000003,-5 z"
       copytype="single_stretched"
       prop_scale="1"
       scale_y_rel="false"
       spacing="0"
       normal_offset="0"
       tang_offset="0"
       prop_units="false"
       vertical_pattern="false"
       fuse_tolerance="0" />
    <inkscape:path-effect
       effect="spiro"
       id="path-effect3761"
       is_visible="true" />
    <inkscape:path-effect
       effect="skeletal"
       id="path-effect3757"
       is_visible="true"
       pattern="M 4.4972029,-5.5350189 0,10 113.43567,-8.8375474 z"
       copytype="single_stretched"
       prop_scale="1"
       scale_y_rel="false"
       spacing="0"
       normal_offset="0"
       tang_offset="0"
       prop_units="false"
       vertical_pattern="false"
       fuse_tolerance="0"
       pattern-nodetypes="cccc" />
    <inkscape:path-effect
       effect="spiro"
       id="path-effect3755"
       is_visible="true" />
    <linearGradient
       inkscape:collect="always"
       xlink:href="#linearGradient3799"
       id="linearGradient3805"
       x1="0.15095537"
       y1="33.495501"
       x2="243.29748"
       y2="33.495501"
       gradientUnits="userSpaceOnUse"
       gradientTransform="translate(3.2757823,981.37625)" />
  </defs>
  <sodipodi:namedview
     id="base"
     pagecolor="#ffffff"
     bordercolor="#666666"
     borderopacity="1.0"
     inkscape:pageopacity="0.0"
     inkscape:pageshadow="2"
     inkscape:zoom="2.8906857"
     inkscape:cx="108.48779"
     inkscape:cy="21.737563"
     inkscape:document-units="px"
     inkscape:current-layer="layer1"
     showgrid="false"
     inkscape:window-width="1280"
     inkscape:window-height="748"
     inkscape:window-x="0"
     inkscape:window-y="0"
     inkscape:window-maximized="1" />
  <metadata
     id="metadata7">
    <rdf:RDF>
      <cc:Work
         rdf:about="">
        <dc:format>image/svg+xml</dc:format>
        <dc:type
           rdf:resource="http://purl.org/dc/dcmitype/StillImage" />
        <dc:title></dc:title>
      </cc:Work>
    </rdf:RDF>
  </metadata>
  <g
     inkscape:label="Layer 1"
     inkscape:groupmode="layer"
     id="layer1"
     transform="translate(0,-977.36218)">
    <path
       style="fill:none;stroke:url(#linearGradient3805);stroke-width:1px;stroke-linecap:butt;stroke-linejoin:miter;stroke-opacity:1"
       d="m 25.444044,1002.9784 c 0.83338,-0.1373 1.722632,-0.2589 2.669865,-0.3631 4.072949,-0.4482 9.221303,-0.5779 15.581804,-0.2433 6.358411,0.3345 11.028758,0.819 14.423384,1.3544 1.697313,0.2676 3.073327,0.5496 4.169819,0.8398 1.096493,0.2902 1.913376,0.5886 2.489016,0.8912 0.575639,0.3026 0.91016,0.6094 1.038525,0.9176 0.128364,0.3081 0.04994,0.6179 -0.202863,0.9274 -0.252807,0.3095 -0.67977,0.6188 -1.244946,0.9254 -0.565176,0.3065 -1.2685,0.6103 -2.07327,0.9085 -1.60954,0.5965 -3.625336,1.1712 -5.748448,1.6995 -2.123111,0.5284 -4.35338,1.0102 -6.38521,1.418 -2.031829,0.4079 -3.864905,0.7415 -5.190887,0.9732 -0.662992,0.1158 -1.199199,0.2062 -1.570155,0.2676 -0.185477,0.031 -0.329644,0.054 -0.427706,0.07 -0.04903,0.01 -0.08653,0.014 -0.111916,0.018 -0.01269,0 -0.02235,0 -0.0289,0 -0.0066,0 -0.01,0 -0.01027,0 -1.2e-5,0 -1.8e-5,0 -1.8e-5,0 -10e-7,0 -1.2e-5,0 -3.4e-5,0 -0.008,0 -1.475528,0.63 -2.804431,1.6187 -0.664451,0.4944 -1.293983,1.0792 -1.691732,1.7228 -0.397749,0.6437 -0.562661,1.3459 -0.312334,2.0795 0.250327,0.7335 0.913866,1.4991 2.168205,2.2696 1.25434,0.7706 3.099477,1.5465 5.719845,2.2948 3.834844,1.0952 9.319429,2.1416 17.108632,2.9561 0.0032,4e-4 0.0064,7e-4 0.0096,10e-4 m -8.154202,-9.9092 c 5.328242,0.6916 12.12377,1.2916 20.546673,1.7753 6.688276,0.3841 11.793188,0.4171 15.721381,0.1541 3.928193,-0.2631 6.67369,-0.8198 8.526872,-1.5864 0.92659,-0.3834 1.6289,-0.819 2.13673,-1.296 0.50783,-0.4769 0.82106,-0.9952 0.96579,-1.544 0.14474,-0.5487 0.12056,-1.1279 -0.0455,-1.7264 -0.16605,-0.5985 -0.4739,-1.2163 -0.89286,-1.842 -0.83791,-1.2515 -2.120938,-2.5345 -3.583043,-3.756 -1.462105,-1.2216 -3.102768,-2.3817 -4.643873,-3.3866 -1.541105,-1.0049 -2.982279,-1.8545 -4.039374,-2.4536 -0.528548,-0.2995 -0.961016,-0.5364 -1.261799,-0.6987 -0.150392,-0.081 -0.267864,-0.1436 -0.347984,-0.1859 -0.04006,-0.021 -0.07078,-0.037 -0.09161,-0.048 -0.01042,-0.01 -0.01836,-0.01 -0.02376,-0.012 -0.0054,-0 -0.0083,-0 -0.0085,-0 -1.2e-5,0 -1.8e-5,0 -1.9e-5,0 -4e-6,0 -2.1e-5,0 -5.3e-5,0 -4.64e-4,-4e-4 -0.0043,-0 -0.01097,-0.01 -0.0067,-0.005 -0.0163,-0.0118 -0.02832,-0.0209 -0.02404,-0.0182 -0.0578,-0.0448 -0.09758,-0.079 -0.07956,-0.0683 -0.183185,-0.16689 -0.281748,-0.28909 -0.197125,-0.24441 -0.37126,-0.58313 -0.307662,-0.96538 0.0636,-0.38224 0.36173,-0.80826 1.082012,-1.23042 0.720283,-0.42216 1.863045,-0.84023 3.61682,-1.20865 3.507551,-0.73683 9.454416,-1.24982 19.333656,-1.32929 0.11026,-8.9e-4 0.22101,-0.002 0.33225,-0.003 0.003,-2e-5 0.006,-4e-5 0.009,-7e-5 m -1.69969,3.29427 c 0.4751,0.0241 0.95785,0.0493 1.44835,0.0756 5.83552,0.31251 12.7655,0.77534 20.96004,1.41216 8.19454,0.63685 17.6431,1.43985 28.62304,2.51585 10.97946,1.076 20.43207,2.2062 28.6524,3.4149 8.22033,1.2086 15.1982,2.4883 21.11026,3.7825 0.31332,0.069 0.62363,0.1372 0.93096,0.2059 0,0 0,0 0,0 0.003,8e-4 0.007,0 0.0103,0 m 3.47351,-4.4879 c 1.17771,0.2744 2.31238,0.546 3.40508,0.8152 10.72501,2.6421 17.35814,5.0713 21.35313,7.1627 1.9975,1.0456 3.34272,2.003 4.23491,2.8516 0.89219,0.8485 1.33132,1.5884 1.51647,2.202 0.18516,0.6135 0.11565,1.1017 -0.003,1.4401 -0.119,0.3385 -0.28713,0.5268 -0.29011,0.5301 -3e-5,10e-5 -4e-5,10e-5 -4e-5,10e-5 -21.95879,-1.1268 -44.197,-1.733 -68.06926,-0.6291 -0.004,2e-4 -0.008,3e-4 -0.0113,5e-4 m 15.44453,-10.4416 c -22.36148,-2.3897 -42.85996,-5.0361 -62.47682,-7.9306 0,0 0,0 -1e-5,0 -2.4e-4,-1e-4 -0.003,-1e-4 -0.009,-2e-4 -0.005,-10e-5 -0.0134,-2e-4 -0.0239,-3e-4 -0.0209,-4e-4 -0.0518,-8e-4 -0.0922,-0 -0.0807,-9e-4 -0.19909,-0 -0.35096,-0 -0.30374,-0 -0.74132,-0 -1.27831,-3e-4 -1.07397,0.01 -2.5452,0.029 -4.14011,0.099 -1.5949,0.069 -3.31344,0.1843 -4.88798,0.3758 -1.57453,0.1915 -3.00584,0.4595 -4.02736,0.8354 -0.51076,0.188 -0.91929,0.403 -1.1891,0.6481 -0.26981,0.2452 -0.40238,0.5209 -0.34464,0.8258 0.0577,0.3049 0.30917,0.6382 0.8082,0.9982 0.49903,0.36 1.24464,0.7469 2.28194,1.1614 2.0746,0.8289 5.31492,1.7688 10.07659,2.8203 0.85597,0.1891 1.76111,0.3817 2.71748,0.5778 0,0 0,0 0,0 0.004,7e-4 0.007,0 0.0109,0 m -14.97166,4.7797 c 0.0828,0.083 0.17823,0.1684 0.28691,0.255 0.45455,0.3623 1.14049,0.753 2.09787,1.1753 1.91477,0.8445 4.91299,1.8135 9.32699,2.9567 4.414,1.1432 10.23877,2.4622 17.87149,4.0292 15.26369,3.1336 29.3185,5.0419 41.9211,6.0076 12.6026,0.9657 23.74312,0.9983 33.00723,0.5743 0.8403,-0.038 1.66511,-0.081 2.47407,-0.126 0.004,-2e-4 0.008,-4e-4 0.0118,-6e-4 m -10.62135,-3.3879 c 1.50038,0.02 2.95107,0.017 4.34955,-0.01 7.76561,-0.1218 13.90977,-0.8098 18.08471,-1.439 2.08747,-0.3146 3.68473,-0.6173 4.75946,-0.8408 0.53736,-0.1117 0.94419,-0.2038 1.21708,-0.2679 0.13644,-0.032 0.23941,-0.057 0.30851,-0.074 0.0346,-0.01 0.0606,-0.015 0.0782,-0.02 0.0176,-0 0.0266,-0.01 0.0272,-0.01 1e-5,0 2e-5,0 2e-5,0 0,0 0,0 -1e-5,0 -0.008,0 -4.9961,1.9704 -13.0493,4.7658 -8.0532,2.7953 -19.12859,6.3974 -31.45629,10.066 -6.3743,1.8969 -13.09064,3.8211 -19.94475,5.6947 -0.003,8e-4 -0.006,0 -0.009,0 m 4.37669,-3.4345 c -7.99813,1.7987 -16.65854,2.9995 -25.5515,3.4439 -15.08246,0.7537 -30.81134,-0.6488 -44.7775,-4.7046 -6.98218,-2.0277 -12.269727,-3.7274 -16.120167,-5.0988 -1.925219,-0.6857 -3.493004,-1.2909 -4.742641,-1.822 -1.249638,-0.531 -2.181143,-0.9878 -2.836255,-1.3789 -0.655113,-0.391 -1.032866,-0.7154 -1.182354,-0.9882 -0.07475,-0.1364 -0.09275,-0.2602 -0.06355,-0.3762 0.0292,-0.1161 0.105252,-0.2248 0.220983,-0.3288 0.231461,-0.2081 0.621835,-0.3977 1.133737,-0.5732 0.511902,-0.1756 1.145791,-0.3367 1.867632,-0.4851 0.957995,-0.1969 2.07094,-0.3712 3.260812,-0.5254 0,0 0,0 0,0 0.0029,-4e-4 0.0059,-8e-4 0.0088,-0 m -9.298375,-6.6333 c 0.785168,-0 1.600057,0.01 2.428259,0.025 2.217577,0.049 4.530207,0.1682 6.627155,0.3109 2.096948,0.1427 3.978516,0.3087 5.337082,0.4397 0.679283,0.065 1.227834,0.1221 1.607145,0.1623 0.189655,0.02 0.336999,0.036 0.437201,0.047 0.0501,0.01 0.08842,0.01 0.114341,0.013 0.01296,0 0.02283,0 0.02952,0 0.0067,7e-4 0.01021,0 0.01048,0 1.1e-5,0 1.7e-5,0 1.7e-5,0 10e-7,0 1.2e-5,0 3.3e-5,0 0.0083,-0 1.66629,-0.3648 3.05873,-0.8726 0.69622,-0.2538 1.32597,-0.5449 1.6527,-0.8475 0.16337,-0.1513 0.25081,-0.3058 0.2353,-0.4562 -0.0155,-0.1503 -0.13333,-0.2955 -0.37915,-0.4252 -0.49163,-0.2595 -1.49551,-0.4593 -3.235014,-0.5336 -1.739505,-0.074 -4.215464,-0.025 -7.651655,0.2436 -3.436191,0.2686 -7.834933,0.7543 -13.399081,1.6169 -5.564149,0.8626 -12.299842,2.0982 -20.328107,3.9794 -8.031433,1.882 -13.899519,3.5954 -18.094562,4.9559 -2.097521,0.6803 -3.776748,1.2758 -5.094781,1.7814 -1.318032,0.5056 -2.274899,0.9213 -2.922839,1.2516 -0.32397,0.1651 -0.570645,0.309 -0.745971,0.4332 -0.175326,0.1243 -0.279594,0.2282 -0.316736,0.3184 -0.01857,0.045 -0.02026,0.087 -0.0045,0.1294 0.01578,0.042 0.04912,0.086 0.09988,0.1312 0.101519,0.091 0.272621,0.1918 0.507372,0.3032 0.359433,0.1705 0.867863,0.3653 1.501669,0.5821 0.0036,0 0.0072,0 0.01082,0 m 19.702164,-1.837 c -4.053025,0.4031 -7.361838,0.7356 -10.04333,1.0288 -2.274653,0.2486 -4.097259,0.4684 -5.52924,0.6693 -1.431982,0.2009 -2.473168,0.3827 -3.179309,0.5507 -0.353071,0.084 -0.622309,0.1644 -0.814316,0.2417 -0.192007,0.077 -0.306803,0.1514 -0.35068,0.2226 -0.02194,0.035 -0.02614,0.07 -0.01329,0.1045 0.01285,0.034 0.04276,0.068 0.08899,0.1003 0.09246,0.066 0.250186,0.1282 0.466931,0.1883 0.433488,0.12 1.103006,0.2292 1.958653,0.3272 0.855646,0.098 1.897468,0.1848 3.075542,0.2602 4.712297,0.3013 11.625248,0.403 17.408871,0.3966 5.783624,-0.01 10.418112,-0.105 10.426804,-0.1052 8e-6,0 1.3e-5,0 1.3e-5,0 1e-6,0 1.4e-5,0 3.8e-5,0 5.06e-4,2e-4 0.0063,0 0.01707,0.01 0.01078,0 0.02656,0.01 0.04704,0.017 0.04096,0.015 0.100748,0.037 0.177054,0.065 0.152612,0.057 0.371308,0.1394 0.637705,0.2439 0.532793,0.2091 1.256442,0.5054 2.023666,0.8559 0.767224,0.3506 1.578009,0.7554 2.284364,1.1819 0.706354,0.4265 1.307906,0.875 1.658221,1.312 0.175158,0.2185 0.28748,0.4341 0.320276,0.6417 0.0328,0.2076 -0.01384,0.4072 -0.154126,0.592 -0.280579,0.3696 -0.93434,0.6795 -2.085843,0.8833 -1.151503,0.2037 -2.801754,0.3018 -5.076982,0.2496 -2.275228,-0.052 -5.175427,-0.2549 -8.822537,-0.6524 -7.29967,-0.7957 -13.422195,-0.6058 -18.476027,-0.065 -0.339081,0.036 -0.67334,0.074 -1.002806,0.1133 0,0 0,0 0,0 -0.0031,4e-4 -0.0061,8e-4 -0.0092,0 m 14.451639,-6.5237 c -0.01292,-4e-4 -0.02584,-8e-4 -0.03878,-0 -7.940194,-0.2558 -14.491806,0.3489 -19.860247,1.225 -5.368441,0.8762 -9.54983,2.0205 -12.687546,2.7945 -1.568858,0.3869 -2.876304,0.6808 -3.936323,0.8005 -1.060018,0.1197 -1.873453,0.065 -2.44563,-0.2421 -0.572178,-0.3068 -0.901641,-0.8646 -0.97955,-1.7435 -0.07791,-0.879 0.09532,-2.0793 0.522357,-3.6769 1.704575,-6.3771 4.627131,-9.5382 7.140347,-11.0899 2.513217,-1.5518 4.631673,-1.491 4.649443,-1.4905 7.5e-5,0 1.15e-4,10e-5 1.19e-4,10e-5 -1.297337,-2.4302 -2.581622,-4.8514 -3.854233,-7.2615 -0.02686,-0.062 -0.08257,-0.1426 -0.163577,-0.2412 -0.08101,-0.099 -0.187349,-0.2149 -0.315687,-0.3475 -0.256675,-0.2653 -0.601342,-0.5959 -1.007578,-0.981 -0.812473,-0.7702 -1.871084,-1.7583 -2.965896,-2.8782 -2.189623,-2.2398 -4.52875,-5.0068 -5.337067,-7.6341 -0.404159,-1.3136 -0.427597,-2.59474 0.180499,-3.73333 0.304048,-0.5693 0.767264,-1.10204 1.425654,-1.58055 0.65839,-0.47852 1.512075,-0.90277 2.596256,-1.25473 0.284257,-0.0923 0.584352,-0.17959 0.900904,-0.2616 0,0 1e-6,0 1e-6,0 0.0035,-8.9e-4 0.0069,-0.002 0.01036,-0.003 m -0.638877,3.4259 c -0.443225,-0.65469 -0.817096,-1.3129 -1.095949,-1.96391 -0.576075,-1.34492 -0.745671,-2.66038 -0.290134,-3.84066 0.227769,-0.59014 0.611535,-1.14608 1.177799,-1.65403 0.566264,-0.50795 1.315,-0.96784 2.273161,-1.36742 1.916322,-0.79916 4.670396,-1.35567 8.481472,-1.59087 3.811075,-0.2352 8.680849,-0.15108 14.817516,0.32126 6.13465,0.47218 10.724561,0.97052 14.065676,1.5111 1.670558,0.27029 3.029105,0.55003 4.112617,0.83731 1.083511,0.28728 1.892032,0.58205 2.461644,0.88165 0.569613,0.29959 0.900575,0.604 1.026219,0.91033 0.125643,0.30632 0.04514,0.61453 -0.210606,0.92169 -0.255743,0.30715 -0.686358,0.61325 -1.255665,0.91546 -0.569307,0.30221 -1.277193,0.60054 -2.086531,0.89223 -1.618676,0.58337 -3.643356,1.1402 -5.774128,1.64905 -2.130772,0.50885 -4.367762,0.96992 -6.406344,1.36034 -2.038583,0.39042 -3.878646,0.71021 -5.210491,0.93296 -0.665922,0.11137 -1.204716,0.1984 -1.577518,0.2577 -0.1864,0.03 -0.331304,0.052 -0.42987,0.068 -0.04928,0.01 -0.08698,0.014 -0.112494,0.017 -0.01276,0 -0.02247,0 -0.02905,0 -0.0066,0 -0.01005,0 -0.01032,0 -1.1e-5,0 -1.7e-5,0 -1.8e-5,0 -10e-7,0 -1.2e-5,0 -3.4e-5,0 -0.008,0 -1.483511,0.6212 -2.823475,1.6041 -0.669982,0.4914 -1.305757,1.074 -1.709694,1.7164 -0.403938,0.6424 -0.574604,1.3441 -0.332076,2.0778 0.242529,0.7338 0.896127,1.4998 2.130924,2.276 1.234797,0.7763 3.051883,1.5618 5.61597,2.3444 0.130978,0.04 0.263903,0.08 0.398794,0.12 0,0 0,0 0,0 0.003,9e-4 0.006,0 0.0091,0 M 29.330922,998.25359 c 1.045868,0.0624 2.134203,0.13635 3.2668,0.2219 6.332817,0.47832 11.146738,0.95368 14.670843,1.4677 1.762052,0.25701 3.202553,0.52261 4.354892,0.79721 1.152338,0.2746 2.016512,0.5582 2.628637,0.849 0.612125,0.2909 0.971897,0.589 1.119946,0.8905 0.148049,0.3014 0.08548,0.6057 -0.143322,0.9068 -0.228802,0.3011 -0.624295,0.5992 -1.148786,0.8908 -0.524492,0.2916 -1.178119,0.5768 -1.924445,0.8525 -1.492653,0.5516 -3.355609,1.0653 -5.303202,1.5209 -1.947594,0.4556 -3.979717,0.8532 -5.820136,1.1787 -1.840419,0.3255 -3.489436,0.5792 -4.678938,0.7515 -0.594752,0.086 -1.074728,0.152 -1.406583,0.1964 -0.165927,0.022 -0.294822,0.039 -0.382485,0.05 -0.04383,0.01 -0.07735,0.01 -0.100039,0.013 -0.01134,0 -0.01998,0 -0.02583,0 -0.0059,7e-4 -0.0089,0 -0.0092,0 -1.1e-5,0 -1.5e-5,0 -1.4e-5,0 10e-7,0 -8e-6,0 -2.7e-5,0 -0.0071,0 -1.309164,0.5577 -2.45552,1.4671 -0.573178,0.4547 -1.107943,0.9984 -1.418794,1.6044 -0.310852,0.6061 -0.399964,1.2756 -0.05482,1.9683 0.345145,0.6927 1.127857,1.407 2.575,2.0954 1.447144,0.6883 3.557351,1.3515 6.56271,1.9404 3.005359,0.5889 6.904585,1.1039 11.954949,1.4884 5.050364,0.3845 11.250207,0.6383 18.903594,0.697 1.816408,0.014 3.5461,0.01 5.191378,-0.014 0.0038,-10e-5 0.0076,-10e-5 0.01141,-2e-4 m -12.433499,-2.6058 c 2.677881,0.2882 5.610568,0.5782 8.818553,0.8794 6.619314,0.6214 11.81589,0.92 15.838723,0.8913 4.022834,-0.029 6.873428,-0.3833 8.805604,-0.998 0.966088,-0.3074 1.702517,-0.6788 2.240073,-1.1002 0.537556,-0.4214 0.876214,-0.8926 1.045791,-1.3955 0.16957,-0.5029 0.16991,-1.037 0.0313,-1.5852 -0.138576,-0.5481 -0.416053,-1.1105 -0.800823,-1.6738 -0.769541,-1.1266 -1.968435,-2.2564 -3.33721,-3.3061 -1.368775,-1.0497 -2.90733,-2.0198 -4.352288,-2.8419 -1.444958,-0.8222 -2.796243,-1.4967 -3.78748,-1.9655 -0.495619,-0.2345 -0.901182,-0.4176 -1.183289,-0.5423 -0.141054,-0.062 -0.251243,-0.1102 -0.326402,-0.1425 -0.03758,-0.016 -0.0664,-0.029 -0.08594,-0.037 -0.0098,-0 -0.01723,-0.01 -0.02229,-0.01 -0.0051,-0 -0.0078,-0 -0.008,-0 -1.1e-5,0 -1.7e-5,0 -1.7e-5,0 -2e-6,0 -1.7e-5,0 -4.7e-5,0 -4.33e-4,-3e-4 -0.004,-0 -0.01024,-0.01 -0.0063,-0 -0.01519,-0.01 -0.02638,-0.017 -0.02238,-0.015 -0.05376,-0.037 -0.09063,-0.065 -0.07375,-0.057 -0.169465,-0.1391 -0.259215,-0.2434 -0.1795,-0.2086 -0.334156,-0.5077 -0.247043,-0.8416 0.08711,-0.3339 0.414916,-0.699 1.190133,-1.0056 0.775217,-0.3067 1.998184,-0.5557 3.873585,-0.6526 1.875401,-0.097 4.403953,-0.043 7.780051,0.2807 3.376101,0.3237 7.601161,0.9154 12.843851,1.9437 3.25105,0.6376 6.89292,1.4441 10.95587,2.4748 0,0 0,0 0,0 0.003,8e-4 0.006,0 0.009,0 m -4.62471,-16.78136 c 9.87055,-0.21091 22.88561,0.33112 40.28881,2.30633 11.21611,1.273 21.06791,2.7921 29.5863,4.28538 8.51839,1.49329 15.71091,2.97321 21.73924,4.3645 4.15786,0.95965 7.76414,1.88025 10.88677,2.75705 0.003,0 0.007,0 0.0104,0 m -13.20412,-1.4385 c 5.44887,0.8957 9.83528,1.9322 13.38315,2.974 3.54787,1.0418 6.25558,2.0913 8.32248,3.0773 2.15725,1.0292 3.61576,1.9908 4.59273,2.8445 0.97696,0.8538 1.47219,1.6011 1.70007,2.2207 0.22789,0.6195 0.18866,1.1128 0.093,1.4554 -0.0957,0.3427 -0.24802,0.5341 -0.25071,0.5375 -3e-5,10e-5 -4e-5,10e-5 -4e-5,10e-5 -22.13596,-0.9096 -44.38182,0.2763 -65.51925,2.8886 -0.003,4e-4 -0.006,8e-4 -0.009,0 m 23.63741,-11.3264 c -18.1255,-1.113 -37.14519,-2.3818 -56.42683,-2.8569 0,0 -1e-5,0 -2e-5,0 -2.7e-4,0 -0.004,3e-4 -0.01,8e-4 -0.006,6e-4 -0.0151,0 -0.0269,0 -0.0236,0 -0.0585,0.01 -0.10408,0.01 -0.0911,0.01 -0.22484,0.022 -0.39646,0.039 -0.34324,0.034 -0.83803,0.086 -1.44641,0.1553 -1.21675,0.1385 -2.88804,0.3479 -4.70927,0.6313 -1.82123,0.2833 -3.79236,0.6407 -5.60661,1.0672 -1.81426,0.4264 -3.47136,0.921 -4.66474,1.472 -0.59669,0.2755 -1.07741,0.5647 -1.40479,0.8693 -0.32738,0.3046 -0.501,0.623 -0.4882,0.9748 0.0128,0.3518 0.21107,0.7407 0.62735,1.1881 0.41628,0.4474 1.05086,0.9522 1.93904,1.5281 1.77637,1.152 4.56619,2.5812 8.6625,4.4395 2.79648,1.2686 6.20165,2.7378 10.31851,4.4967 0.003,0 0.006,0 0.009,0 m -19.63467,-8.9873 c -0.22267,0.07 -0.43381,0.1416 -0.63208,0.2157 -0.59783,0.2236 -1.07851,0.4678 -1.40554,0.7359 -0.32703,0.2682 -0.50007,0.56 -0.48645,0.8825 0.0136,0.3225 0.21298,0.6764 0.63198,1.0677 0.419,0.3914 1.05786,0.8199 1.95477,1.2879 1.7938,0.9361 4.61717,2.032 8.80777,3.2804 4.1906,1.2485 9.75019,2.6476 17.04946,4.1678 14.00634,2.917 26.9119,4.3327 38.27864,4.9385 11.36675,0.6058 21.20486,0.3927 29.29791,-0.1409 0.003,-2e-4 0.007,-5e-4 0.0103,-7e-4 m -19.86276,-0.9832 c 11.24086,1.1285 21.06524,1.005 29.0343,0.4175 7.73999,-0.5706 13.742,-1.5853 17.79427,-2.4422 2.02614,-0.4285 3.56671,-0.8189 4.60158,-1.1018 0.51743,-0.1414 0.90847,-0.2561 1.17064,-0.3355 0.13109,-0.04 0.22996,-0.071 0.29631,-0.092 0.0332,-0.011 0.0582,-0.019 0.0751,-0.024 0.0169,-0.01 0.0256,-0.01 0.0261,-0.01 10e-6,0 2e-5,0 2e-5,0 0,0 -1e-5,0 -1e-5,0 -0.008,0 -4.74103,1.5466 -12.70593,3.6726 -7.96491,2.1259 -19.15483,4.8183 -32.3483,7.2375 -0.003,7e-4 -0.007,0 -0.0103,0 m 2.69165,-1.5329 c -4.77453,1.3772 -9.94569,2.7079 -15.4121,3.9091 -13.61382,2.9917 -29.07416,5.1465 -44.7058,5.6376 -15.05289,0.473 -30.25927,-0.5528 -43.934446,-3.7339 -0.0036,-8e-4 -0.0072,-0 -0.01081,-0 m 26.647422,4.9757 c -7.60658,0.097 -14.81846,-0.5191 -21.42314,-1.9245 -6.272438,-1.3347 -10.897297,-2.5236 -14.247906,-3.5209 -1.675305,-0.4986 -3.030699,-0.9512 -4.106831,-1.3593 -1.076133,-0.4081 -1.872964,-0.7718 -2.428593,-1.0944 -0.555629,-0.3227 -0.870352,-0.6043 -0.978561,-0.8491 -0.0541,-0.1224 -0.05645,-0.2355 -0.01011,-0.34 0.04634,-0.1045 0.141501,-0.2002 0.281652,-0.2878 0.280303,-0.1753 0.740502,-0.3179 1.343472,-0.4328 0.602969,-0.115 1.34857,-0.2023 2.198611,-0.2669 1.700082,-0.1292 3.818316,-0.1676 6.044754,-0.153 2.226439,0.015 4.561089,0.083 6.68723,0.1679 2.126142,0.085 4.043522,0.1875 5.430572,0.2691 0.69352,0.041 1.25442,0.076 1.64242,0.1017 0.194,0.013 0.34479,0.023 0.44734,0.03 0.0513,0 0.0905,0.01 0.11703,0.01 0.0133,9e-4 0.0234,0 0.0302,0 0.007,5e-4 0.0104,8e-4 0.0107,8e-4 1e-5,0 2e-5,0 2e-5,0 0,0 10e-6,0 3e-5,0 0.009,-0 1.70724,-0.4339 3.1407,-1.0092 0.71673,-0.2877 1.36642,-0.6113 1.70672,-0.9361 0.17014,-0.1624 0.26257,-0.3251 0.25196,-0.4834 -0.0106,-0.1584 -0.12302,-0.3123 -0.35965,-0.457 -0.47327,-0.2894 -1.44454,-0.5422 -3.12181,-0.7173 -1.67726,-0.1751 -4.06131,-0.2739 -7.35485,-0.24 -3.243927,0.033 -7.369934,0.1923 -12.563195,0.5771 -0.0031,2e-4 -0.0061,5e-4 -0.0092,7e-4 m 29.322109,2.342 c -0.61542,-0.2165 -1.60378,-0.4064 -3.08096,-0.5543 -1.87383,-0.1875 -4.53437,-0.3068 -8.20698,-0.3339 -3.67262,-0.027 -8.35564,0.038 -14.274449,0.2052 -5.918809,0.1669 -13.068006,0.4358 -21.723429,0.7931 -8.658838,0.3574 -15.129714,0.6502 -19.812011,0.9339 -2.341149,0.1419 -4.233939,0.2806 -5.726505,0.4187 -1.492565,0.1382 -2.584833,0.2759 -3.327031,0.4136 -0.371099,0.069 -0.654712,0.1378 -0.85743,0.2066 -0.202718,0.069 -0.324388,0.1375 -0.372663,0.2052 -0.02414,0.034 -0.02998,0.067 -0.01904,0.1001 0.01094,0.033 0.03859,0.064 0.08184,0.095 0.08649,0.061 0.235361,0.1169 0.439996,0.1679 0.40927,0.1021 1.041768,0.1844 1.847125,0.2489 0.805358,0.065 1.783586,0.1114 2.884334,0.1429 4.402992,0.1256 10.745538,-0 15.911737,-0.1897 0.61776,-0.022 1.21908,-0.045 1.798969,-0.068 0.0031,-10e-5 0.0061,-3e-4 0.0092,-4e-4 m -24.592941,-10.3598 c -0.840336,0.1157 -1.500425,0.2282 -1.998128,0.3369 -0.36135,0.079 -0.637084,0.1557 -0.83391,0.2304 -0.196825,0.075 -0.314685,0.1473 -0.360521,0.2175 -0.02292,0.035 -0.02785,0.07 -0.01585,0.1033 0.012,0.034 0.04091,0.067 0.08582,0.099 0.08981,0.064 0.243626,0.1252 0.455065,0.1829 0.422879,0.1155 1.076313,0.2183 1.910823,0.3107 0.834509,0.092 1.850144,0.1745 2.997526,0.2484 4.589529,0.2958 11.2991,0.4745 16.887947,0.6069 5.588847,0.1324 10.045068,0.207 10.053431,0.2071 8e-6,0 1.2e-5,0 1.2e-5,0 0,0 1.2e-5,0 3.5e-5,0 4.85e-4,2e-4 0.006,0 0.01638,0.01 0.01034,0 0.02548,0.011 0.04512,0.019 0.03929,0.016 0.09663,0.041 0.169805,0.072 0.146349,0.063 0.356034,0.1539 0.611334,0.269 0.5106,0.2301 1.203692,0.5558 1.937367,0.9393 0.733676,0.3836 1.507938,0.8249 2.180418,1.2859 0.67248,0.4609 1.243111,0.9414 1.569482,1.4032 0.163185,0.231 0.265299,0.4573 0.288766,0.6746 0.02347,0.2174 -0.0317,0.4259 -0.182707,0.622 -0.302013,0.3922 -0.987237,0.7353 -2.194235,0.9988 -1.206998,0.2634 -2.935893,0.4468 -5.324644,0.5206 -2.388751,0.074 -5.43716,0.038 -9.283205,-0.134 -7.697834,-0.3443 -14.190663,0.2623 -19.567595,1.1484 -5.376933,0.886 -9.636602,2.0525 -12.851329,2.8415 -1.607364,0.3944 -2.953363,0.6945 -4.046541,0.8191 -0.152692,0.017 -0.300451,0.031 -0.4433,0.042 -0.0033,2e-4 -0.0066,4e-4 -0.0099,7e-4 m 23.736558,2.5411 c -2.345603,0.043 -4.556976,0.1978 -6.624093,0.4178 -5.308822,0.565 -9.659456,1.5531 -12.971847,2.2245 -1.656195,0.3358 -3.054263,0.5935 -4.192853,0.686 -1.138589,0.093 -2.016785,0.02 -2.645091,-0.3012 -0.628307,-0.3211 -1.008046,-0.8907 -1.169234,-1.7862 -0.161189,-0.8955 -0.103362,-2.117 0.143906,-3.738 0.986991,-6.4705 3.289859,-9.6396 5.354253,-11.2041 2.064395,-1.5645 3.857789,-1.5085 3.872681,-1.508 6.3e-5,0 9.1e-5,0 8.3e-5,0 -1.807152,-2.4395 -3.643688,-4.8681 -5.506232,-7.2889 -0.04138,-0.062 -0.118298,-0.1433 -0.227292,-0.2425 -0.108994,-0.099 -0.250012,-0.216 -0.419245,-0.3494 -0.338466,-0.2669 -0.789788,-0.5996 -1.323123,-0.9874 -1.06667,-0.7756 -2.461749,-1.7715 -3.935338,-2.9028 -2.947178,-2.2627 -6.2019143,-5.0702 -7.7452468,-7.7438 -0.7716662,-1.3367 -1.1116309,-2.6406 -0.8365642,-3.8059 0.1375334,-0.5826 0.426618,-1.1299 0.8820217,-1.6267 0.4554036,-0.4967 1.0769211,-0.9428 1.8805037,-1.32383 1.6071656,-0.76195 3.9424076,-1.26185 7.1481956,-1.39981 1.227207,-0.0528 2.582047,-0.0528 4.072721,0.004 0,0 0,0 0,0 0.0027,1.1e-4 0.0055,2.1e-4 0.0082,3.2e-4 m -12.5120293,2.1935 c -1.6633613,-1.88699 -3.1246354,-3.87875 -3.8955523,-5.77119 -0.5976627,-1.46713 -0.7807445,-2.87501 -0.335723,-4.14357 0.2225108,-0.63428 0.6017169,-1.23408 1.1642136,-1.78943 0.5624966,-0.55534 1.3082284,-1.06629 2.2656151,-1.52082 1.9147734,-0.90908 4.6743269,-1.59461 8.5302639,-1.93319 3.855937,-0.33857 8.810295,-0.32804 15.132103,0.17592 6.319731,0.50379 11.10479,1.10662 14.596085,1.72522 1.745648,0.30931 3.169329,0.62422 4.30665,0.9406 1.137321,0.31638 1.988327,0.63427 2.590142,0.95135 0.601814,0.31708 0.954279,0.63313 1.096606,0.94848 0.142326,0.31534 0.07511,0.63073 -0.160808,0.94856 -0.235924,0.31782 -0.640823,0.63773 -1.177772,0.95717 -0.536949,0.31945 -1.206029,0.63831 -1.971104,0.95305 -1.530151,0.62947 -3.444205,1.24252 -5.455532,1.80764 -2.011328,0.56512 -4.120179,1.08204 -6.039923,1.51879 -1.919743,0.43675 -3.650461,0.79323 -4.902668,1.04027 -0.626104,0.12352 -1.132522,0.21973 -1.482896,0.28518 -0.175188,0.0327 -0.311364,0.0578 -0.403993,0.0747 -0.04631,0.008 -0.08174,0.0149 -0.105717,0.0192 -0.01199,0.002 -0.02111,0.004 -0.0273,0.005 -0.0062,0.001 -0.0094,0.002 -0.0097,0.002 -1.1e-5,10e-6 -1.6e-5,10e-6 -1.6e-5,10e-6 0,0 -10e-6,0 -3e-5,1e-5 -0.0075,0.003 -1.388605,0.64656 -2.627882,1.64963 -0.619638,0.50153 -1.203805,1.09301 -1.560926,1.74231 -0.357122,0.6493 -0.487345,1.356 -0.194782,2.0945 0.292562,0.7385 1.008819,1.51 2.3423,2.2871 0.641774,0.374 1.426403,0.7492 2.37457,1.1214 0,0 0,0 0,0 0.0031,0 0.0063,0 0.0094,0 m 72.526925,-11.0294 69.37359,4.6796 m -74.793372,36.9878 -11.29791,-3.1123"
       id="path3765"
       inkscape:connector-curvature="0"
       inkscape:path-effect="#path-effect3781"
       inkscape:original-d="m 24.032103,1016.5933 c -1.037816,-2.0756 -34.24793,-25.25352 15.913179,-21.79414 50.16111,3.45939 0,11.07004 0,11.07004 0,0 -22.486014,9.6863 31.480421,13.4916 53.966437,3.8054 15.221302,-17.9888 15.221302,-17.9888 0,0 -12.453793,-9.34034 74.722755,-1.72969 87.17655,7.61069 77.14433,18.68069 77.14433,18.68069 L 135.7703,1006.907 c 0,0 -47.393602,0.346 10.37816,12.7998 57.77176,12.4538 92.01969,2.0756 92.01969,2.0756 0,0 -81.29559,28.7129 -132.14858,16.951 -50.852985,-11.7619 0.69188,-7.9566 0.69188,-7.9566 0,0 25.59946,-6.9188 -41.858582,-2.4216 -67.4580433,4.4972 3.459387,4.8432 3.459387,4.8432 0,0 20.756321,8.3025 -10.378161,6.2269 -31.134481,-2.0756 -42.896397,11.07 -40.128887,-2.0756 2.767509,-13.1457 10.724099,-13.1457 10.724099,-13.1457 z" />
    <flowRoot
       xml:space="preserve"
       id="flowRoot3809"
       style="font-size:8px;font-style:normal;font-weight:normal;line-height:125%;letter-spacing:0px;word-spacing:0px;fill:#000000;fill-opacity:1;stroke:none;font-family:Sans"
       transform="translate(12.611328,963.68491)"><flowRegion
         id="flowRegion3811"><rect
           id="rect3813"
           width="245.96242"
           height="89.598129"
           x="10.032222"
           y="6.8500791" /></flowRegion><flowPara
         id="flowPara3815"
         style="font-size:72px;font-style:normal;font-variant:normal;font-weight:normal;font-stretch:normal;font-family:cmr10;-inkscape-font-specification:cmr10">Knuth</flowPara></flowRoot>  </g>
</svg>
