<?xml version="1.0" encoding="UTF-8" standalone="no"?>
<!-- Created with Inkscape (http://www.inkscape.org/) -->

<svg
   xmlns:dc="http://purl.org/dc/elements/1.1/"
   xmlns:cc="http://creativecommons.org/ns#"
   xmlns:rdf="http://www.w3.org/1999/02/22-rdf-syntax-ns#"
   xmlns:svg="http://www.w3.org/2000/svg"
   xmlns="http://www.w3.org/2000/svg"
   xmlns:sodipodi="http://sodipodi.sourceforge.net/DTD/sodipodi-0.dtd"
   xmlns:inkscape="http://www.inkscape.org/namespaces/inkscape"
   width="100%"
   height="100%"
   viewBox="0 0 200 75"
   id="svg2"
   version="1.1"
   inkscape:version="0.48.0 r9654"
   sodipodi:docname="logo.svg">
  <defs
     id="defs4">
    <inkscape:path-effect
       effect="skeletal"
       id="path-effect3016"
       is_visible="true"
       pattern="m 6.5693429,982.47166 0,10 10.0000001,-5 z"
       copytype="single_stretched"
       prop_scale="1.07"
       scale_y_rel="false"
       spacing="0"
       normal_offset="0"
       tang_offset="0"
       prop_units="false"
       vertical_pattern="false"
       fuse_tolerance="0" />
    <inkscape:path-effect
       effect="spiro"
       id="path-effect3014"
       is_visible="true" />
    <inkscape:path-effect
       effect="spiro"
       id="path-effect3010"
       is_visible="true" />
    <inkscape:path-effect
       effect="spiro"
       id="path-effect3000"
       is_visible="true" />
  </defs>
  <sodipodi:namedview
     id="base"
     pagecolor="#ffffff"
     bordercolor="#666666"
     borderopacity="1.0"
     inkscape:pageopacity="0.0"
     inkscape:pageshadow="2"
     inkscape:zoom="8.8345312"
     inkscape:cx="80.088051"
     inkscape:cy="37.5"
     inkscape:document-units="px"
     inkscape:current-layer="layer1"
     showgrid="false"
     inkscape:window-width="1280"
     inkscape:window-height="748"
     inkscape:window-x="0"
     inkscape:window-y="0"
     inkscape:window-maximized="1" />
  <metadata
     id="metadata7">
    <rdf:RDF>
      <cc:Work
         rdf:about="">
        <dc:format>image/svg+xml</dc:format>
        <dc:type
           rdf:resource="http://purl.org/dc/dcmitype/StillImage" />
        <dc:title></dc:title>
      </cc:Work>
    </rdf:RDF>
  </metadata>
  <g
     inkscape:label="Layer 1"
     inkscape:groupmode="layer"
     id="layer1"
     transform="translate(0,-977.36218)">
    <rect
       style="color:#000000;fill:#fffaf4;fill-opacity:1;fill-rule:nonzero;stroke:none;stroke-width:3.02191138000000015;marker:none;visibility:visible;display:inline;overflow:visible;enable-background:accumulate"
       id="rect2991"
       width="200"
       height="75"
       x="0"
       y="977.36218"
       rx="0"
       ry="0" />
    <path
       style="fill:#ffaf00;fill-opacity:1;fill-rule:evenodd;stroke:none;opacity:0.39344262"
       d="m 24.69037,1035.9885 1.71415,-10.5618 c -3.483011,-0.5052 -6.903326,-2.0995 -9.550112,-4.4679 -2.653554,-2.361 -4.647468,-5.6014 -5.561583,-9.067 -0.923512,-3.4633 -0.803127,-7.2972 0.351887,-10.7243 1.146176,-3.43029 3.375296,-6.59001 6.251729,-8.83525 2e-6,0 4e-6,-1e-5 7e-6,-1e-5 2.870955,-2.25245 6.50033,-3.67436 10.169989,-3.96791 3.669083,-0.30227 7.512156,0.51526 10.765733,2.30594 3.257739,1.78335 6.037746,4.6037 7.783317,7.91838 10e-7,0 2e-6,0 4e-6,0 1.752804,3.31095 2.526948,7.22645 2.156346,10.98685 -0.229318,2.6981 -1.159638,5.5476 -2.178387,8.5906 -1.057205,3.0448 -2.248334,6.3163 -2.978559,9.9378 -0.764845,3.6304 -0.820349,7.6533 0.398361,11.6059 2e-6,0 3e-6,0 5e-6,0 0.631602,1.9754 1.649803,3.8679 3.054935,5.5306 3e-6,0 7e-6,0 10e-6,0 1.41095,1.669 3.233292,3.0174 5.349643,3.875 3.461576,1.3129 7.150219,1.1777 10.340051,-0.098 9e-6,0 1.8e-5,0 2.7e-5,0 3.151707,-1.262 5.748201,-3.3502 7.684363,-5.8122 3.796796,-4.9254 5.429989,-10.5474 6.883865,-15.5738 1.601219,-4.9399 3.148008,-9.7083 6.366975,-12.6117 2e-6,0 5e-6,0 7e-6,0 1.561953,-1.4605 3.438095,-2.5797 5.361531,-2.8832 2e-6,0 5e-6,0 8e-6,0 1.880008,-0.3017 3.957465,0.036 5.320558,1.1125 1.382018,0.9328 2.310554,2.7582 2.917547,4.7333 0.587616,2.0158 0.685514,4.3437 0.820717,6.8365 0.101759,2.4974 0.246617,5.2072 0.962781,7.9874 0.697041,2.8163 2.226455,5.6058 4.734115,7.6357 2.081,1.5929 4.59649,2.4118 7.11208,2.4388 2.50331,0.024 4.91803,-0.6543 7.00451,-1.845 0,0 1e-5,0 2e-5,0 4.13447,-2.4185 6.87732,-6.398 8.3298,-10.5822 0,0 1e-5,0 1e-5,0 1.46394,-4.1432 1.93463,-8.3741 2.31954,-12.4093 0.41473,-4.0383 0.75786,-7.966 1.94428,-11.5376 2.03642,-6.2603 6.73503,-11.73169 12.68754,-14.70274 5.94776,-2.98085 13.20678,-3.48734 19.56984,-1.31849 6.36615,2.16014 11.87614,7.01145 14.83575,13.12503 3.33357,6.2276 4.04506,13.7132 1.9602,20.2473 0,0 0,0 0,0 1.37011,-3.9041 0.78028,-8.2116 -1.43363,-11.4134 -2.4647,-3.2748 -6.41885,-5.3082 -10.47231,-5.4236 -4.05373,-0.1085 -8.07021,1.7048 -10.65469,4.773 0,0 -1e-5,0 -1e-5,0 -2.58037,3.0717 -3.65107,7.3058 -2.86588,11.1955 0,0 1e-5,0 1e-5,0 0.48073,2.3812 1.64298,4.627 3.37054,6.3234 1e-5,0 1e-5,0 2e-5,0 1.72875,1.6967 4.02502,2.8122 6.4241,3.0305 2.39993,0.2174 4.87716,-0.492 6.72897,-2.005 1.85149,-1.5136 3.03068,-3.8316 3.07761,-6.1989 0.0146,-0.7393 -0.0767,-1.4794 -0.26937,-2.1907 0.17587,0.7157 0.24903,1.4553 0.21725,2.1891 -0.10147,2.3489 -1.32626,4.5989 -3.16221,6.0293 -1.83661,1.432 -4.25752,2.0538 -6.55303,1.792 -2.29723,-0.2611 -4.46812,-1.3894 -6.07148,-3.0367 -1.60498,-1.648 -2.65215,-3.811 -3.05487,-6.0678 -0.65678,-3.6803 0.46414,-7.6441 2.9109,-10.4129 0,0 1e-5,0 1e-5,0 2.44265,-2.7724 6.20646,-4.3466 9.85301,-4.1561 3.64683,0.1836 7.18685,2.131 9.28121,5.069 2.34513,3.0109 3.30458,7.0466 2.65001,10.5779 2.82483,-6.8168 2.87177,-14.6575 0.15849,-21.3057 -3.08725,-6.76225 -8.94696,-12.20974 -15.99014,-14.79738 -7.04627,-2.57894 -15.10434,-2.23551 -21.95831,0.98584 -6.84923,3.23115 -12.31109,9.25326 -14.85986,16.45874 0,0 -1e-5,0 -1e-5,0 -1.42439,4.0958 -1.92924,8.3042 -2.40982,12.316 -0.50896,4.002 -0.99886,7.8944 -2.35487,11.3303 0,0 0,0 0,0 -1.36877,3.3982 -3.52455,6.5234 -6.47248,8.0156 -1e-5,0 -2e-5,0 -2e-5,0 -1.45562,0.7651 -3.08044,1.1955 -4.62209,1.1198 -1.52887,-0.072 -3.05482,-0.5919 -4.1458,-1.5102 -1.41286,-1.0738 -2.29125,-2.9852 -2.83244,-5.0136 -0.52239,-2.0656 -0.55304,-4.4009 -0.62886,-6.9019 -0.0424,-2.5058 -0.13735,-5.2241 -0.82102,-8.0457 -0.66396,-2.861 -2.19392,-5.7162 -4.773998,-7.8339 -2.827153,-2.1495 -6.369885,-2.9394 -9.711613,-2.4048 -1e-5,0 -1.9e-5,0 -2.9e-5,0 -3.300552,0.5331 -6.254347,2.1006 -8.561634,4.2482 -7e-6,0 -1.3e-5,0 -2e-5,0 -4.519833,4.3134 -6.774425,9.95 -8.366342,15.0985 -1.739531,5.0627 -3.117188,9.9414 -6.020956,13.2069 -1.413906,1.6332 -3.088566,2.9744 -4.887156,3.5801 -5e-6,0 -1e-5,0 -1.5e-5,0 -1.758864,0.5913 -3.729597,0.6735 -5.166392,-0.01 -0.917615,-0.3783 -1.776505,-1.0767 -2.471621,-1.9171 -4e-6,0 -7e-6,0 -1e-5,0 -0.70101,-0.8468 -1.222292,-1.9183 -1.574575,-3.0678 -2e-6,0 -3e-6,0 -5e-6,0 -0.748939,-2.2969 -0.544486,-5.049 0.0172,-7.8348 0.599246,-2.809 1.764872,-5.7013 2.912245,-8.8417 1.176468,-3.1161 2.31793,-6.5316 2.816303,-10.3315 0.65047,-5.3573 -0.286968,-10.85224 -2.700331,-15.71548 -4e-6,-10e-6 -8e-6,-2e-5 -1.2e-5,-2e-5 -2.420598,-4.85955 -6.249296,-8.95365 -10.969139,-11.70164 -4.724015,-2.74067 -10.204355,-4.05828 -15.689807,-3.75261 -5.484863,0.3144 -10.814672,2.24177 -15.252039,5.53578 -7e-6,10e-6 -1.4e-5,10e-6 -2.2e-5,2e-5 -4.4318946,3.30124 -7.8391097,7.86917 -9.7415875,13.09227 -1.89363919,5.22618 -2.22541398,10.94638 -0.9311325,16.38578 1.3036781,5.437 4.1910994,10.422 8.2893919,14.2729 4.1050611,3.8435 9.2875871,6.4296 14.8607791,7.3942 z"
       id="path3012"
       inkscape:path-effect="#path-effect3014;#path-effect3016"
       inkscape:original-d="m 25.547445,1030.7076 c 0,0 28.953771,-46.47194 27.250608,-20.6812 -1.703163,25.7908 -6.326033,49.1484 0.973237,35.7664 7.29927,-13.3819 35.523111,-42.5791 42.335771,-34.7932 6.812649,7.786 -35.523119,40.8759 9.245739,27.494 44.76885,-13.382 -17.518246,-33.09 23.35766,-32.6034 40.87591,0.4866 68.61314,8.0292 50.85158,18.0048 0,0 -38.19951,35.0365 -25.06083,-0.9732 13.13869,-36.00974 27.00731,1.7032 19.22142,1.2166 -7.78589,-0.4866 -0.24331,-2.1899 -0.24331,-2.1899"
       inkscape:connector-curvature="0"
       sodipodi:nodetypes="cssssscssc" />
    <g
       transform="translate(10.40625,975.7671)"
       style="font-size:8px;font-style:normal;font-weight:normal;line-height:125%;letter-spacing:0px;word-spacing:0px;fill:#000000;fill-opacity:1;stroke:none;font-family:Sans"
       id="flowRoot3753">
      <path
         d="m 1.65625,60.938826 0,-2.25 c 1.4583302,2e-6 2.6562457,-0.114581 3.59375,-0.34375 0.9374938,-0.229164 1.4062433,-0.791664 1.40625,-1.6875 l 0,-33.59375 c -6.7e-6,-1.145795 -0.1770898,-1.968711 -0.53125,-2.46875 -0.3333391,-0.520793 -0.822922,-0.833293 -1.46875,-0.9375 -0.6458373,-0.124959 -1.6458363,-0.187459 -3,-0.1875 l 0,-2.25 9.46875,-0.6875 0,30.375 8.59375,-7.53125 c 0.854146,-0.812478 1.281229,-1.562477 1.28125,-2.25 -2.1e-5,-0.499976 -0.177104,-0.874976 -0.53125,-1.125 -0.354187,-0.270809 -0.78127,-0.406225 -1.28125,-0.40625 l 0,-2.25 12.03125,0 0,2.25 c -2.895862,2.5e-5 -5.791692,1.26044 -8.6875,3.78125 l -4.5625,3.96875 8.15625,11.5625 c 1.124973,1.604171 2.062472,2.63542 2.8125,3.09375 0.770804,0.458335 2.031219,0.687502 3.78125,0.6875 l 0,2.25 -12.75,0 0,-2.25 c 1.458312,2e-6 2.187478,-0.447914 2.1875,-1.34375 -2.2e-5,-0.64583 -0.385438,-1.458329 -1.15625,-2.4375 l -6.15625,-8.75 -3.90625,3.375 0,7.125 c -1.1e-5,0.895836 0.468739,1.458336 1.40625,1.6875 0.95832,0.229169 2.156235,0.343752 3.59375,0.34375 l 0,2.25 -14.28125,0"
         style="font-size:64px;font-variant:normal;font-stretch:normal;font-family:cmr10;-inkscape-font-specification:cmr10"
         id="path3031" />
      <path
         d="m 35.65625,60.938826 0,-2.25 c 1.45833,2e-6 2.656245,-0.114581 3.59375,-0.34375 0.937494,-0.229164 1.406243,-0.791664 1.40625,-1.6875 l 0,-17.46875 c -7e-6,-1.145811 -0.17709,-1.968727 -0.53125,-2.46875 -0.333339,-0.520809 -0.822922,-0.833309 -1.46875,-0.9375 -0.645838,-0.124975 -1.645837,-0.187475 -3,-0.1875 l 0,-2.25 9.28125,-0.6875 0,6.25 c 0.854155,-1.83331 2.11457,-3.333308 3.78125,-4.5 1.687483,-1.166639 3.520815,-1.749972 5.5,-1.75 2.95831,2.8e-5 5.177058,0.70836 6.65625,2.125 1.499971,1.416691 2.249971,3.583355 2.25,6.5 l 0,15.375 c -2.9e-5,0.895836 0.46872,1.458336 1.40625,1.6875 0.937468,0.229169 2.135384,0.343752 3.59375,0.34375 l 0,2.25 -14.65625,0 0,-2.25 c 1.458312,2e-6 2.656228,-0.114581 3.59375,-0.34375 0.937476,-0.229164 1.406225,-0.791664 1.40625,-1.6875 l 0,-15.1875 c -2.5e-5,-2.083312 -0.302108,-3.791644 -0.90625,-5.125 -0.60419,-1.354141 -1.843772,-2.031224 -3.71875,-2.03125 -2.479184,2.6e-5 -4.520849,0.989609 -6.125,2.96875 -1.583346,1.979188 -2.375012,4.229186 -2.375,6.75 l 0,12.625 c -1.2e-5,0.895836 0.468738,1.458336 1.40625,1.6875 0.937486,0.229169 2.124985,0.343752 3.5625,0.34375 l 0,2.25 -14.65625,0"
         style="font-size:64px;font-variant:normal;font-stretch:normal;font-family:cmr10;-inkscape-font-specification:cmr10"
         id="path3033" />
      <path
         d="m 76.15625,53.313826 0,-14.125 c -7e-6,-1.145811 -0.17709,-1.968727 -0.53125,-2.46875 -0.333339,-0.520809 -0.822922,-0.833309 -1.46875,-0.9375 -0.645838,-0.124975 -1.645837,-0.187475 -3,-0.1875 l 0,-2.25 9.6875,-0.6875 0,20.65625 c -1.2e-5,1.666672 0.114572,2.968754 0.34375,3.90625 0.249988,0.916669 0.760404,1.604168 1.53125,2.0625 0.791652,0.458334 2.041651,0.687501 3.75,0.6875 2.291647,1e-6 4.114562,-0.958332 5.46875,-2.875 1.354143,-1.916661 2.031225,-4.093743 2.03125,-6.53125 l 0,-11.375 c -2.5e-5,-1.145811 -0.177108,-1.968727 -0.53125,-2.46875 -0.354191,-0.520809 -0.85419,-0.833309 -1.5,-0.9375 -0.625022,-0.124975 -1.614604,-0.187475 -2.96875,-0.1875 l 0,-2.25 9.65625,-0.6875 0,22.46875 c -2.9e-5,1.125004 0.166637,1.94792 0.5,2.46875 0.354136,0.500002 0.854136,0.812502 1.5,0.9375 0.6458,0.104169 1.6458,0.156252 3,0.15625 l 0,2.25 -9.46875,0.71875 0,-5.40625 c -0.791691,1.604169 -1.895856,2.906251 -3.3125,3.90625 -1.416687,0.999999 -2.979185,1.499999 -4.6875,1.5 -3.062514,-10e-7 -5.500011,-0.645834 -7.3125,-1.9375 -1.791674,-1.312498 -2.687507,-3.447912 -2.6875,-6.40625"
         style="font-size:64px;font-variant:normal;font-stretch:normal;font-family:cmr10;-inkscape-font-specification:cmr10"
         id="path3035" />
      <path
         d="m 111.28125,53.251326 0,-17.65625 -5.3125,0 0,-1.65625 c 2.79166,2.7e-5 4.84374,-1.302055 6.15625,-3.90625 1.31249,-2.604134 1.96874,-5.427047 1.96875,-8.46875 l 1.84375,0 0,11.78125 9.03125,0 0,2.25 -9.03125,0 0,17.53125 c -1e-5,1.770839 0.29166,3.322921 0.875,4.65625 0.60415,1.333335 1.67707,2.000001 3.21875,2 1.45832,1e-6 2.5104,-0.697915 3.15625,-2.09375 0.64581,-1.416662 0.96873,-2.937494 0.96875,-4.5625 l 0,-3.78125 1.84375,0 0,3.90625 c -2e-5,1.333339 -0.25002,2.656255 -0.75,3.96875 -0.47919,1.291669 -1.19794,2.354168 -2.15625,3.1875 -0.95835,0.833333 -2.12502,1.249999 -3.5,1.25 -2.56251,-10e-7 -4.59376,-0.760417 -6.09375,-2.28125 -1.47917,-1.541664 -2.21876,-3.583329 -2.21875,-6.125"
         style="font-size:64px;font-variant:normal;font-stretch:normal;font-family:cmr10;-inkscape-font-specification:cmr10"
         id="path3037" />
      <path
         d="m 131.53125,60.938826 0,-2.25 c 1.45833,2e-6 2.65625,-0.114581 3.59375,-0.34375 0.93749,-0.229164 1.40624,-0.791664 1.40625,-1.6875 l 0,-33.59375 c -1e-5,-1.145795 -0.17709,-1.968711 -0.53125,-2.46875 -0.33334,-0.520793 -0.82292,-0.833293 -1.46875,-0.9375 -0.64584,-0.124959 -1.64584,-0.187459 -3,-0.1875 l 0,-2.25 9.5,-0.6875 0,22 c 0.89582,-1.77081 2.14582,-3.187475 3.75,-4.25 1.60415,-1.083306 3.37498,-1.624972 5.3125,-1.625 2.95831,2.8e-5 5.17706,0.70836 6.65625,2.125 1.49997,1.416691 2.24997,3.583355 2.25,6.5 l 0,15.375 c -3e-5,0.895836 0.46872,1.458336 1.40625,1.6875 0.93747,0.229169 2.13538,0.343752 3.59375,0.34375 l 0,2.25 -14.65625,0 0,-2.25 c 1.45831,2e-6 2.65623,-0.114581 3.59375,-0.34375 0.93748,-0.229164 1.40623,-0.791664 1.40625,-1.6875 l 0,-15.1875 c -2e-5,-2.083312 -0.30211,-3.791644 -0.90625,-5.125 -0.60419,-1.354141 -1.84377,-2.031224 -3.71875,-2.03125 -2.47918,2.6e-5 -4.52085,0.989609 -6.125,2.96875 -1.58335,1.979188 -2.37501,4.229186 -2.375,6.75 l 0,12.625 c -1e-5,0.895836 0.46874,1.458336 1.40625,1.6875 0.93749,0.229169 2.12498,0.343752 3.5625,0.34375 l 0,2.25 -14.65625,0"
         style="font-size:64px;font-variant:normal;font-stretch:normal;font-family:cmr10;-inkscape-font-specification:cmr10"
         id="path3039" />
      <path
         d="m 170.5,57.407576 c -1e-5,-0.958329 0.35416,-1.781245 1.0625,-2.46875 0.70833,-0.687494 1.53124,-1.031243 2.46875,-1.03125 0.58332,7e-6 1.15624,0.156256 1.71875,0.46875 0.56249,0.312506 0.99999,0.750005 1.3125,1.3125 0.31249,0.562504 0.46874,1.13542 0.46875,1.71875 -1e-5,0.937502 -0.34376,1.760418 -1.03125,2.46875 -0.68751,0.708333 -1.51043,1.0625 -2.46875,1.0625 -0.93751,0 -1.76042,-0.354167 -2.46875,-1.0625 -0.70834,-0.708332 -1.06251,-1.531248 -1.0625,-2.46875"
         style="font-size:64px;font-variant:normal;font-stretch:normal;font-family:cmr10;-inkscape-font-specification:cmr10"
         id="path3041" />
    </g>
  </g>
</svg>
